<svg width="11" height="13" viewBox="0 0 11 13" fill="none" xmlns="http://www.w3.org/2000/svg">
<path d="M10.8927 11.31L10.1963 5.04212C10.1689 4.68788 10.0115 4.35625 9.75439 4.11116C9.49727 3.86606 9.15849 3.72461 8.80343 3.71423H2.09915C1.74399 3.7246 1.40533 3.86606 1.14809 4.11116C0.890968 4.35626 0.733652 4.68788 0.706299 5.04212L0.00987095 11.31C-0.0400808 11.7554 0.101691 12.201 0.399844 12.5357C0.65116 12.8283 1.017 12.9977 1.40273 12.9999H9.50914C9.89487 12.9977 10.2607 12.8283 10.512 12.5357C10.8069 12.1995 10.9452 11.754 10.8928 11.31H10.8927ZM9.82019 11.9228C9.7435 12.0158 9.6296 12.0701 9.50906 12.0714H1.40265C1.28212 12.0701 1.16823 12.0158 1.09152 11.9228C0.972342 11.7809 0.916898 11.5962 0.938351 11.4121L1.63478 5.1442C1.63747 5.01839 1.68629 4.89786 1.77179 4.80552C1.85739 4.71318 1.97377 4.65524 2.09907 4.64281H8.81263C8.93793 4.65525 9.05431 4.71318 9.13991 4.80552C9.22541 4.89786 9.27422 5.01838 9.27692 5.1442L9.97334 11.4121C9.9948 11.5962 9.93937 11.7809 9.82019 11.9228Z" fill="white"/>
<path d="M3.13463 5.10724C3.01152 5.10724 2.89337 5.15616 2.80632 5.24321C2.71927 5.33026 2.67035 5.44841 2.67035 5.57152V6.96438C2.67035 7.1303 2.75885 7.28357 2.90249 7.36648C3.04613 7.44938 3.22314 7.44938 3.36678 7.36648C3.51041 7.28357 3.59892 7.13029 3.59892 6.96438V5.57152C3.59892 5.44841 3.55 5.33026 3.46295 5.24321C3.3759 5.15616 3.25775 5.10724 3.13463 5.10724Z" fill="white"/>
<path d="M7.77733 5.10724C7.65422 5.10724 7.53607 5.15616 7.44902 5.24321C7.36197 5.33026 7.31305 5.44841 7.31305 5.57152V6.96438C7.31305 7.1303 7.40155 7.28357 7.54519 7.36648C7.68883 7.44938 7.86584 7.44938 8.00948 7.36648C8.15311 7.28357 8.24162 7.13029 8.24162 6.96438V5.57152C8.24162 5.44841 8.1927 5.33026 8.10565 5.24321C8.0186 5.15616 7.90045 5.10724 7.77733 5.10724Z" fill="white"/>
<path d="M3.13463 3.24998C3.25775 3.24998 3.3759 3.20107 3.46295 3.11401C3.55 3.02696 3.59892 2.90882 3.59892 2.7857C3.59892 2.12222 3.95294 1.50913 4.52749 1.17739C5.10204 0.845649 5.81008 0.845649 6.38463 1.17739C6.95918 1.50913 7.3132 2.12222 7.3132 2.7857C7.3132 2.95162 7.4017 3.10489 7.54534 3.18779C7.68898 3.2707 7.86599 3.2707 8.00963 3.18779C8.15326 3.10489 8.24177 2.95161 8.24177 2.7857C8.24177 1.79048 7.71084 0.870826 6.84892 0.373166C5.98699 -0.124389 4.92513 -0.124389 4.0632 0.373166C3.20128 0.870826 2.67035 1.79048 2.67035 2.7857C2.67035 2.90882 2.71927 3.02696 2.80632 3.11401C2.89337 3.20107 3.01152 3.24998 3.13463 3.24998Z" fill="white"/>
</svg>
