<svg width="11" height="11" viewBox="0 0 11 11" fill="none" xmlns="http://www.w3.org/2000/svg">
<path fill-rule="evenodd" clip-rule="evenodd" d="M5.04872 0H5.95128C6.23333 0 6.43075 0.225654 6.43075 0.479474V4.56925H10.5205C10.8026 4.56925 11 4.7949 11 5.04872V5.95128C11 6.23333 10.8026 6.43075 10.5205 6.43075H6.43075V10.5205C6.43075 10.8026 6.23333 11 5.95128 11H5.04872C4.7949 11 4.56925 10.8026 4.56925 10.5205V6.43075H0.479475C0.225654 6.43075 0 6.23333 0 5.95128V5.04872C0 4.7949 0.225654 4.56925 0.479475 4.56925H4.56925V0.479474C4.56925 0.225654 4.7949 0 5.04872 0V0Z" fill="#1A1A1A"/>
</svg>
