<svg width="13" height="11" viewBox="0 0 13 11" fill="none" xmlns="http://www.w3.org/2000/svg">
<path d="M11.093 0.7414C10.5214 0.266683 9.78812 0.00528176 9.02805 0.00528176C8.14901 0.00528176 7.29859 0.35691 6.69504 0.970238C6.55421 1.11269 6.42551 1.26967 6.3061 1.44369C5.68926 0.54377 4.69285 0 3.61919 0C3.42244 0 3.22293 0.0182099 3.02607 0.0540922C2.00994 0.240229 1.21127 0.802404 0.652425 1.72456C-0.14778 3.04642 -0.211094 4.26715 0.458083 5.45647C0.817075 6.09354 1.28416 6.71672 1.88679 7.36142C2.99551 8.54695 4.3077 9.67162 6.01762 10.902C6.10868 10.9672 6.20563 11 6.30526 11C6.45982 11 6.56436 10.9213 6.62393 10.876C8.14362 9.78551 9.39075 8.7348 10.4369 7.66265C11.0254 7.05947 11.6919 6.31844 12.1792 5.39691C12.3837 5.00886 12.6172 4.48794 12.6036 3.89948C12.5729 2.61151 12.065 1.54886 11.0933 0.741209L11.093 0.7414ZM11.5551 5.06441C11.1105 5.90566 10.4855 6.59898 9.93294 7.16564C8.93679 8.18638 7.74908 9.19017 6.30283 10.2341C4.69306 9.06742 3.45016 7.99761 2.40079 6.87514C1.8371 6.27196 1.40295 5.69356 1.07231 5.10637C0.533423 4.14833 0.591325 3.19102 1.25541 2.09438C1.70494 1.35243 2.34351 0.901231 3.152 0.752951C3.30683 0.724514 3.46408 0.71043 3.61909 0.71043C4.5825 0.71043 5.4356 1.24481 5.89848 2.136C5.92488 2.18785 5.95093 2.23737 5.99374 2.31756C6.05501 2.43373 6.17488 2.50576 6.30492 2.50576H6.31098C6.44316 2.50352 6.56321 2.42709 6.62162 2.30761C6.79036 1.96333 6.97285 1.69735 7.19653 1.46987C7.6688 0.990125 8.33619 0.715542 9.02803 0.715542C9.62461 0.715542 10.1982 0.91917 10.643 1.28912C11.4503 1.95922 11.8721 2.84359 11.8977 3.91646C11.9072 4.33796 11.7296 4.73311 11.5551 5.06439L11.5551 5.06441Z" fill="#3A595C"/>
</svg>
